# xmcd
#
# Track frame offsets: 
#        150
#        9649
#        25319
#        45008
#        60448
#        78948
#        85714
#        102232
#        119734
#
# Disc length: 1812 seconds
#
# Revision: 0
# Processed by: cddbd v1.5.2PL0 Copyright (c) Steve Scherf et al.
# Submitted via: ExactAudioCopy v0.99pb4
#
DISCID=5f071209
DTITLE=Live - Serena Ryder
DYEAR=2011
DGENRE=Country
TTITLE0=Melancholy Blue
TTITLE1=Little Bit of Red
TTITLE2=Brand New Love
TTITLE3=Weak in the Knees
TTITLE4=All for Love
TTITLE5=Sing Sing
TTITLE6=Sisters of Mercy
TTITLE7=What I Wanna Know
TTITLE8=Broken Heart Sun (f. Melissa Etheridge)
EXTD=
EXTT0=
EXTT1=
EXTT2=
EXTT3=
EXTT4=
EXTT5=
EXTT6=
EXTT7=
EXTT8=
PLAYORDER=
